<svg aria-hidden="true" version="1.1" xmlns="http://www.w3.org/2000/svg" xmlns:xlink="http://www.w3.org/1999/xlink">
  <defs>
    <symbol id="facebook" viewBox="0 0 8 8">
      <path d="M7.25 0h-6.5c-0.412 0-0.75 0.338-0.75 0.75v6.5c0 0.412 0.338 0.75 0.75 0.75h3.25v-3.5h-1v-1h1v-0.5c0-0.827 0.673-1.5 1.5-1.5h1v1h-1c-0.275 0-0.5 0.225-0.5 0.5v0.5h1.5l-0.25 1h-1.25v3.5h2.25c0.412 0 0.75-0.338 0.75-0.75v-6.5c0-0.412-0.338-0.75-0.75-0.75z"></path>
    </symbol>
    <symbol id="instagram" viewBox="0 0 8 8">
      <path d="M4 0.72c1.069 0 1.195 0.005 1.616 0.023 0.391 0.017 0.602 0.083 0.742 0.138 0.186 0.072 0.32 0.159 0.459 0.298 0.141 0.141 0.227 0.273 0.3 0.459 0.055 0.141 0.12 0.353 0.138 0.742 0.019 0.422 0.023 0.548 0.023 1.616s-0.005 1.195-0.023 1.616c-0.017 0.391-0.083 0.602-0.138 0.742-0.072 0.186-0.159 0.32-0.298 0.459-0.141 0.141-0.273 0.227-0.459 0.3-0.141 0.055-0.353 0.12-0.742 0.138-0.422 0.019-0.548 0.023-1.616 0.023s-1.195-0.005-1.616-0.023c-0.391-0.017-0.602-0.083-0.742-0.138-0.186-0.072-0.32-0.159-0.459-0.298-0.141-0.141-0.227-0.273-0.3-0.459-0.055-0.141-0.12-0.353-0.137-0.742-0.019-0.422-0.023-0.548-0.023-1.616s0.005-1.195 0.023-1.616c0.017-0.391 0.083-0.602 0.137-0.742 0.072-0.186 0.159-0.32 0.298-0.459 0.141-0.141 0.273-0.227 0.459-0.3 0.141-0.055 0.353-0.12 0.742-0.137 0.42-0.019 0.547-0.023 1.616-0.023zM4 0c-1.086 0-1.222 0.005-1.648 0.023-0.425 0.019-0.717 0.087-0.97 0.186-0.264 0.103-0.488 0.239-0.709 0.463-0.223 0.222-0.359 0.445-0.463 0.708-0.098 0.255-0.167 0.545-0.186 0.97-0.019 0.428-0.023 0.564-0.023 1.65s0.005 1.222 0.023 1.648c0.019 0.425 0.087 0.717 0.186 0.97 0.103 0.264 0.239 0.487 0.463 0.709 0.222 0.222 0.445 0.359 0.708 0.461 0.255 0.098 0.545 0.167 0.97 0.186 0.427 0.019 0.563 0.023 1.648 0.023s1.222-0.005 1.648-0.023c0.425-0.019 0.717-0.088 0.97-0.186 0.263-0.102 0.486-0.239 0.708-0.461s0.359-0.445 0.461-0.708c0.098-0.255 0.167-0.545 0.186-0.97 0.019-0.427 0.023-0.563 0.023-1.648s-0.005-1.222-0.023-1.648c-0.019-0.425-0.088-0.717-0.186-0.97-0.098-0.266-0.234-0.489-0.458-0.711-0.222-0.222-0.445-0.359-0.708-0.461-0.255-0.098-0.545-0.167-0.97-0.186-0.428-0.020-0.564-0.025-1.65-0.025v0z"></path>
      <path d="M4 1.945c-1.134 0-2.055 0.92-2.055 2.055s0.92 2.055 2.055 2.055 2.055-0.92 2.055-2.055c0-1.134-0.92-2.055-2.055-2.055zM4 5.333c-0.736 0-1.333-0.597-1.333-1.333s0.597-1.333 1.333-1.333c0.736 0 1.333 0.597 1.333 1.333s-0.597 1.333-1.333 1.333z"></path>
      <path d="M6.616 1.864c0 0.265-0.215 0.48-0.48 0.48s-0.48-0.215-0.48-0.48c0-0.265 0.215-0.48 0.48-0.48s0.48 0.215 0.48 0.48z"></path>
    </symbol>
    <symbol id="twitter" viewBox="0 0 8 8">
      <path d="M8 1.769c-0.294 0.131-0.611 0.219-0.942 0.258 0.339-0.203 0.598-0.525 0.722-0.908-0.317 0.188-0.669 0.325-1.042 0.398-0.3-0.319-0.727-0.517-1.198-0.517-0.906 0-1.641 0.734-1.641 1.641 0 0.128 0.014 0.253 0.042 0.373-1.364-0.069-2.573-0.722-3.383-1.716-0.141 0.242-0.222 0.525-0.222 0.825 0 0.569 0.289 1.072 0.73 1.366-0.269-0.008-0.522-0.083-0.744-0.205 0 0.006 0 0.014 0 0.020 0 0.795 0.566 1.459 1.317 1.609-0.137 0.037-0.283 0.058-0.433 0.058-0.106 0-0.208-0.011-0.309-0.030 0.209 0.652 0.816 1.127 1.533 1.141-0.563 0.441-1.269 0.703-2.039 0.703-0.133 0-0.263-0.008-0.392-0.023 0.728 0.467 1.591 0.737 2.517 0.737 3.019 0 4.67-2.502 4.67-4.67 0-0.072-0.002-0.142-0.005-0.212 0.32-0.23 0.598-0.519 0.819-0.848z"></path>
    </symbol>
    <symbol id="view" viewBox="0 0 16 16">
      <path d="M8 6q0.813 0 1.406 0.594t0.594 1.406-0.594 1.406-1.406 0.594-1.406-0.594-0.594-1.406 0.594-1.406 1.406-0.594zM8 11.344q1.375 0 2.359-0.984t0.984-2.359-0.984-2.359-2.359-0.984-2.359 0.984-0.984 2.359 0.984 2.359 2.359 0.984zM8 3q2.469 0 4.469 1.375t2.875 3.625q-0.875 2.25-2.875 3.625t-4.469 1.375-4.469-1.375-2.875-3.625q0.875-2.25 2.875-3.625t4.469-1.375z"></path>
    </symbol>
    <symbol id="favorite_outline" viewBox="0 0 16 16">
      <path d="M8.063 12.375q1.5-1.344 2.219-2.031t1.563-1.625 1.172-1.656 0.328-1.406q0-1-0.672-1.656t-1.672-0.656q-0.781 0-1.453 0.438t-0.922 1.125h-1.25q-0.25-0.688-0.922-1.125t-1.453-0.438q-1 0-1.672 0.656t-0.672 1.656q0 0.688 0.328 1.406t1.172 1.656 1.563 1.625 2.219 2.031l0.063 0.063zM11 2q1.563 0 2.609 1.063t1.047 2.594q0 0.906-0.344 1.766t-1.266 1.922-1.672 1.781-2.406 2.219l-0.969 0.875-0.969-0.844q-2.156-1.938-3.109-2.906t-1.766-2.281-0.813-2.531q0-1.531 1.047-2.594t2.609-1.063q1.813 0 3 1.406 1.188-1.406 3-1.406z"></path>
    </symbol>
    <symbol id="favorite" viewBox="0 0 16 16">
      <path d="M8 14.219l-0.969-0.875q-1.656-1.5-2.406-2.219t-1.672-1.781-1.266-1.922-0.344-1.766q0-1.531 1.047-2.594t2.609-1.063q1.813 0 3 1.406 1.188-1.406 3-1.406 1.563 0 2.609 1.063t1.047 2.594q0 1.219-0.813 2.531t-1.766 2.281-3.109 2.906z"></path>
    </symbol>
    <symbol id="phone" viewBox="0 0 16 16">
      <path d="M13.344 10.25q0.281 0 0.469 0.188t0.188 0.469v2.313q0 0.781-0.656 0.781-4.656 0-8-3.344t-3.344-8q0-0.656 0.781-0.656h2.313q0.281 0 0.469 0.188t0.188 0.469q0 1.219 0.375 2.344 0.125 0.406-0.156 0.688l-1.281 1.125q1.438 3 4.594 4.531l1.031-1.313q0.188-0.188 0.469-0.188 0.156 0 0.219 0.031 1.125 0.375 2.344 0.375z"></path>
    </symbol>
    <symbol id="email" viewBox="0 0 16 16">
      <path d="M13.344 5.344v-1.344l-5.344 3.344-5.344-3.344v1.344l5.344 3.313zM13.344 2.656q0.531 0 0.922 0.406t0.391 0.938v8q0 0.531-0.391 0.938t-0.922 0.406h-10.688q-0.531 0-0.922-0.406t-0.391-0.938v-8q0-0.531 0.391-0.938t0.922-0.406h10.688z"></path>
    </symbol>
    <symbol id="location_pin" viewBox="0 0 16 16">
      <path d="M8 1.344v0q-0.969 0-1.813 0.359t-1.484 1-1 1.484-0.359 1.813q0 0.875 0.234 1.688t0.703 1.531q0.469 0.781 1.047 1.469t1.047 1.469q0.25 0.375 0.422 0.734t0.359 0.766q0.094 0.188 0.188 0.422t0.25 0.406 0.406 0.172v0q0.25 0 0.406-0.172t0.25-0.406 0.188-0.422q0.188-0.406 0.359-0.766t0.422-0.734q0.469-0.75 1.047-1.453t1.047-1.484q0.469-0.719 0.703-1.531t0.234-1.688q0-0.969-0.359-1.813t-1-1.484-1.484-1-1.813-0.359zM8 7.844q-0.688 0-1.172-0.5t-0.484-1.188 0.484-1.172 1.172-0.484 1.172 0.484 0.484 1.172-0.484 1.188-1.172 0.5z"></path>
    </symbol>
    <symbol id="angle" viewBox="0 0 16 16">
      <path d="M6.656 4l4 4-4 4-0.938-0.938 3.063-3.063-3.063-3.063z"></path>
    </symbol>
    <symbol id="times" viewBox="0 0 16 16">
      <title>times</title>
      <path d="M11.609 4.391c-0.52-0.521-1.365-0.521-1.885 0l-1.724 1.724-1.724-1.724c-0.52-0.521-1.365-0.521-1.885 0s-0.521 1.365 0 1.885l1.723 1.724-1.723 1.724c-0.521 0.521-0.521 1.365 0 1.885 0.26 0.261 0.601 0.391 0.943 0.391s0.683-0.13 0.943-0.391l1.724-1.724 1.724 1.724c0.26 0.261 0.601 0.391 0.943 0.391s0.683-0.13 0.943-0.391c0.521-0.521 0.521-1.365 0-1.885l-1.723-1.724 1.723-1.724c0.521-0.521 0.521-1.365 0-1.885z"></path>
    </symbol>
  </defs>
</svg>
